<svg xmlns="http://www.w3.org/2000/svg" xmlns:xlink="http://www.w3.org/1999/xlink" version="1.1" width="500"
     height="500" viewBox="0 0 500 500" xml:space="preserve">
<desc>Created with Fabric.js 4.6.0</desc>
    <defs>
</defs>
    <g transform="matrix(1 0 0 1 80.62 112.58)" id="hdAcbKxQ7CCmdMOnSfCSS">
<path style="stroke: rgb(80,73,227); stroke-width: 0; stroke-dasharray: none; stroke-linecap: butt; stroke-dashoffset: 0; stroke-linejoin: miter; stroke-miterlimit: 4; fill: rgb(75,83,170); fill-rule: nonzero; opacity: 1;"
      vector-effect="non-scaling-stroke" transform=" translate(-28.27, -28.27)"
      d="M 28.26942 0 C 43.87414 0 56.53884 12.6647 56.53884 28.26942 C 56.53884 43.87414 43.87414 56.53884 28.26942 56.53884 C 12.6647 56.53884 0 43.87414 0 28.26942 C 0 12.6647 12.6647 0 28.26942 0 z"
      stroke-linecap="round"/>
</g>
    <g transform="matrix(1 0 0 1 181.41 225.66)" id="7YoOmfm4ZnKqQh-b9oIyJ">
<path style="stroke: rgb(152,71,183); stroke-width: 0; stroke-dasharray: none; stroke-linecap: butt; stroke-dashoffset: 0; stroke-linejoin: miter; stroke-miterlimit: 4; fill: rgb(75,83,170); fill-rule: nonzero; opacity: 1;"
      vector-effect="non-scaling-stroke" transform=" translate(-76.45, -76.45)"
      d="M 76.45035 0 C 118.65093999999999 0 152.9007 34.24976 152.9007 76.45035 C 152.9007 118.65093999999999 118.65093999999999 152.9007 76.45035 152.9007 C 34.24976 152.9007 0 118.65093999999999 0 76.45035 C 0 34.24976 34.24976 0 76.45035 0 z"
      stroke-linecap="round"/>
</g>
    <g transform="matrix(1 0 0 1 156.33 50.64)" id="ivtA4DO1RrbI1Ot9_uGB-">
<path style="stroke: rgb(180,198,134); stroke-width: 0; stroke-dasharray: none; stroke-linecap: butt; stroke-dashoffset: 0; stroke-linejoin: miter; stroke-miterlimit: 4; fill: rgb(75,83,170); fill-rule: nonzero; opacity: 1;"
      vector-effect="non-scaling-stroke" transform=" translate(-14.5, -14.5)"
      d="M 14.50344 0 C 22.50934 0 29.00688 6.49754 29.00688 14.50344 C 29.00688 22.50934 22.509339999999998 29.00688 14.50344 29.00688 C 6.497539999999999 29.00688 0 22.509339999999998 0 14.50344 C 0 6.497539999999999 6.49754 0 14.50344 0 z"
      stroke-linecap="round"/>
</g>
    <g transform="matrix(1 0 0 1 379.55 370.21)" id="brMlvs2WuDH1qp8RewM98">
<path style="stroke: rgb(131,160,10); stroke-width: 0; stroke-dasharray: none; stroke-linecap: butt; stroke-dashoffset: 0; stroke-linejoin: miter; stroke-miterlimit: 4; fill: rgb(75,83,170); fill-rule: nonzero; opacity: 1;"
      vector-effect="non-scaling-stroke" transform=" translate(-120.21, -120.21)"
      d="M 120.20649 0 C 186.56047 0 240.41298 53.85251 240.41298 120.20649 C 240.41298 186.56047 186.56047 240.41298 120.20649 240.41298 C 53.852509999999995 240.41298 0 186.56047 0 120.20649 C 0 53.852509999999995 53.85251 0 120.20649 0 z"
      stroke-linecap="round"/>
</g>
    <g transform="matrix(1 0 0 1 145.52 420.46)" id="6S-MgLxtd4uWXRtX3I4LZ">
<path style="stroke: rgb(246,78,207); stroke-width: 0; stroke-dasharray: none; stroke-linecap: butt; stroke-dashoffset: 0; stroke-linejoin: miter; stroke-miterlimit: 4; fill: rgb(75,83,170); fill-rule: nonzero; opacity: 1;"
      vector-effect="non-scaling-stroke" transform=" translate(-48.43, -48.43)"
      d="M 48.42675 0 C 75.15832 0 96.8535 21.69518 96.8535 48.42675 C 96.8535 75.15832 75.15832 96.8535 48.42675 96.8535 C 21.695179999999997 96.8535 0 75.15832 0 48.42675 C 0 21.695179999999997 21.69518 0 48.42675 0 z"
      stroke-linecap="round"/>
</g>
</svg>
